<svg width="1434" height="669" viewBox="0 0 1434 669" fill="none" xmlns="http://www.w3.org/2000/svg">
<g clip-path="url(#clip0_2_298)">
<path fill-rule="evenodd" clip-rule="evenodd" d="M746.588 389.078C727.889 377.531 723.046 353.319 723.046 353.319C723.046 353.319 717.34 370.819 699.44 375.827L702.543 385.563L725.139 391.346L746.588 389.078Z" stroke="#C9DEF2" stroke-linecap="round" stroke-linejoin="round"/>
<path fill-rule="evenodd" clip-rule="evenodd" d="M681.54 380.831C681.54 380.831 671.873 372.391 676.379 353.954C676.379 353.954 704.802 393.61 746.588 389.082C746.588 389.082 721.018 403.539 681.54 380.831Z" stroke="#C9DEF2" stroke-linecap="round" stroke-linejoin="round"/>
<path fill-rule="evenodd" clip-rule="evenodd" d="M573.956 473.58C590.225 472.28 603.366 486.28 603.366 486.28C603.366 486.28 606.544 469.215 593.528 464.611L569.177 461.595L573.956 473.58Z" stroke="#C9DEF2" stroke-linecap="round" stroke-linejoin="round"/>
<path fill-rule="evenodd" clip-rule="evenodd" d="M530.308 470.851C530.308 470.851 551.322 470.897 566.264 485.528C566.264 485.528 577.108 461.3 593.529 464.611C593.529 464.611 540.86 441.483 530.308 470.851Z" stroke="#C9DEF2" stroke-linecap="round" stroke-linejoin="round"/>
<path fill-rule="evenodd" clip-rule="evenodd" d="M830.88 650.294C830.88 659.993 765.722 667.847 685.35 667.847C604.974 667.847 539.816 659.993 539.816 650.294C539.816 640.596 604.97 632.734 685.35 632.734C765.722 632.734 830.88 640.596 830.88 650.294Z" fill="#EBF1F9"/>
<path fill-rule="evenodd" clip-rule="evenodd" d="M782.332 625.515L765.684 632.742L782.332 625.515Z" fill="#F7F8F9"/>
<path d="M782.332 625.515L765.684 632.742M606.779 627.65L610.88 629.125C610.88 629.125 620.956 624.649 628.637 624.351" stroke="#C9DEF2" stroke-linecap="round" stroke-linejoin="round"/>
<path fill-rule="evenodd" clip-rule="evenodd" d="M581.644 629.125C581.644 629.125 592.431 633.641 600.343 636.642L581.644 629.125Z" fill="#F7F8F9"/>
<path d="M581.644 629.125C581.644 629.125 592.431 633.641 600.343 636.642M673.533 632.882C673.533 632.882 686.091 632.742 693.84 636.639C693.84 636.639 698.646 632.424 709.569 628.837" stroke="#C9DEF2" stroke-linecap="round" stroke-linejoin="round"/>
<path fill-rule="evenodd" clip-rule="evenodd" d="M716.073 639.065C716.073 639.065 707.204 642.629 703.364 646.526L716.073 639.065Z" fill="#F7F8F9"/>
<path d="M716.073 639.065C716.073 639.065 707.204 642.629 703.364 646.526" stroke="#C9DEF2" stroke-linecap="round" stroke-linejoin="round"/>
<path fill-rule="evenodd" clip-rule="evenodd" d="M646.935 639.065C646.935 639.065 652.269 639.088 658.467 641.306L646.935 639.065Z" fill="#F7F8F9"/>
<path d="M646.935 639.065C646.935 639.065 652.269 639.088 658.467 641.306" stroke="#C9DEF2" stroke-linecap="round" stroke-linejoin="round"/>
<path fill-rule="evenodd" clip-rule="evenodd" d="M647.094 642.505C635.675 644.988 611.754 654.917 611.754 654.917L582.405 640.577C581.046 616.86 574.792 546.002 574.792 546.002C574.792 546.002 621.815 556.479 643.287 548.486C643.287 548.486 660.684 557.579 681.608 557.859C681.608 557.859 677.805 567.509 678.078 571.095C678.078 571.095 686.232 573.571 690.307 573.571L687.586 544.075L690.31 542.412L685.142 541.04C685.142 541.04 705.256 534.421 716.671 522.561C716.671 522.561 749.558 519.802 787.61 501.055C787.61 501.055 782.987 514.019 770.758 526.42L788.973 530.562L780.815 647.195L752.816 659.328C752.816 659.328 732.71 650.502 715.309 647.195L692.754 660.707C692.754 660.707 677.805 653.265 647.094 647.471V642.505Z" stroke="#C9DEF2" stroke-linecap="round" stroke-linejoin="round"/>
<path d="M574.796 545.998C574.796 545.998 593.279 566.681 610.4 572.191C610.4 572.191 651.437 575.23 681.608 557.859" stroke="#C9DEF2" stroke-linecap="round" stroke-linejoin="round"/>
<path fill-rule="evenodd" clip-rule="evenodd" d="M611.758 654.917L610.4 614.928L606.325 617.695C606.325 617.695 595.178 611.625 588.928 596.461C588.928 596.461 600.074 604.458 609.038 604.731L610.4 572.195" fill="#F7F8F9"/>
<path d="M611.758 654.917L610.4 614.928L606.325 617.695C606.325 617.695 595.178 611.625 588.928 596.461C588.928 596.461 600.074 604.458 609.038 604.731L610.4 572.195" stroke="#C9DEF2" stroke-linecap="round" stroke-linejoin="round"/>
<path fill-rule="evenodd" clip-rule="evenodd" d="M788.969 530.562L756.532 548.542L718.733 543.258" fill="#F7F8F9"/>
<path d="M788.969 530.562L756.532 548.542L718.733 543.258" stroke="#C9DEF2" stroke-linecap="round" stroke-linejoin="round"/>
<path fill-rule="evenodd" clip-rule="evenodd" d="M752.82 659.324C752.82 659.324 755.941 590.496 756.532 548.542L752.82 659.324Z" fill="#F7F8F9"/>
<path d="M752.82 659.324C752.82 659.324 755.941 590.496 756.532 548.542M727.587 557.829C742.063 557.232 756.263 562.924 756.263 562.924C756.263 562.924 768.938 551.539 777.209 551.539" stroke="#C9DEF2" stroke-linecap="round" stroke-linejoin="round"/>
<path fill-rule="evenodd" clip-rule="evenodd" d="M785.806 575.809L773.963 580.881L785.806 575.809Z" fill="#F7F8F9"/>
<path d="M785.806 575.809L773.963 580.881M727.587 613.552C727.587 613.552 746.618 618.957 754.678 622.556L758.896 620.756M715.313 647.195L721.382 582.4L695.691 595.886L692.751 660.707" stroke="#C9DEF2" stroke-linecap="round" stroke-linejoin="round"/>
<path fill-rule="evenodd" clip-rule="evenodd" d="M660.037 580.881L641.634 593.486C641.634 593.486 660.537 591.993 695.687 595.886" fill="#F7F8F9"/>
<path d="M660.037 580.881L641.634 593.486C641.634 593.486 660.537 591.993 695.687 595.886" stroke="#C9DEF2" stroke-linecap="round" stroke-linejoin="round"/>
<path fill-rule="evenodd" clip-rule="evenodd" d="M721.382 582.4L716.342 580.881L721.382 582.4Z" fill="#F7F8F9"/>
<path d="M721.382 582.4L716.342 580.881" stroke="#C9DEF2" stroke-linecap="round" stroke-linejoin="round"/>
<path fill-rule="evenodd" clip-rule="evenodd" d="M647.093 642.505C647.093 642.505 645.765 608.17 641.634 593.486L647.093 642.505Z" fill="#F7F8F9"/>
<path d="M647.093 642.505C647.093 642.505 645.765 608.17 641.634 593.486" stroke="#C9DEF2" stroke-linecap="round" stroke-linejoin="round"/>
<path fill-rule="evenodd" clip-rule="evenodd" d="M610.4 614.932C610.4 614.932 628.251 603.888 643.359 601.533C643.359 601.533 623.419 599.794 609.041 604.734" fill="#F7F8F9"/>
<path d="M610.4 614.932C610.4 614.932 628.251 603.888 643.359 601.533C643.359 601.533 623.419 599.794 609.041 604.734M585.511 575.809C585.511 575.809 604.694 582.979 609.722 588.384C609.722 588.384 625.092 582.703 635.133 582.4" stroke="#C9DEF2" stroke-linecap="round" stroke-linejoin="round"/>
<path fill-rule="evenodd" clip-rule="evenodd" d="M578.424 583.735C578.424 583.735 585.511 585.246 591.712 588.837L578.424 583.735Z" fill="#F7F8F9"/>
<path d="M578.424 583.735C578.424 583.735 585.511 585.246 591.712 588.837" stroke="#C9DEF2" stroke-linecap="round" stroke-linejoin="round"/>
<path fill-rule="evenodd" clip-rule="evenodd" d="M644.362 608.355C644.362 608.355 656.991 608.17 666.742 609.969L644.362 608.355Z" fill="#F7F8F9"/>
<path d="M644.362 608.355C644.362 608.355 656.991 608.17 666.742 609.969" stroke="#C9DEF2" stroke-linecap="round" stroke-linejoin="round"/>
<path fill-rule="evenodd" clip-rule="evenodd" d="M719.142 606.326C719.142 606.326 714.59 609.07 710.159 611.761L719.142 606.326Z" fill="#F7F8F9"/>
<path d="M719.142 606.326C719.142 606.326 714.59 609.07 710.159 611.761" stroke="#C9DEF2" stroke-linecap="round" stroke-linejoin="round"/>
<path fill-rule="evenodd" clip-rule="evenodd" d="M727.587 588.384C727.587 588.384 749.449 589.895 758.896 599.783C758.896 599.783 764.602 591.691 769.282 586.29L755.472 590.939C755.472 590.939 741.17 586.872 727.587 588.384Z" fill="#F7F8F9"/>
<path d="M678.078 571.095C678.078 571.095 662.603 571.987 649.311 572.399C649.311 572.399 662.648 587.492 692.751 593.49C692.751 593.49 706.614 585.677 721.381 578.349C721.381 578.349 706.788 577.336 690.306 573.571M727.587 588.384C727.587 588.384 749.448 589.895 758.896 599.783C758.896 599.783 764.602 591.691 769.282 586.29L755.472 590.939C755.472 590.939 741.17 586.872 727.587 588.384Z" stroke="#C9DEF2" stroke-linecap="round" stroke-linejoin="round"/>
<path fill-rule="evenodd" clip-rule="evenodd" d="M770.758 526.424C770.758 526.424 765.688 532.66 764.507 533.563C764.507 533.563 730.417 547.677 690.306 542.415" fill="#F7F8F9"/>
<path d="M770.758 526.424C770.758 526.424 765.688 532.66 764.507 533.563C764.507 533.563 730.417 547.677 690.306 542.415" stroke="#C9DEF2" stroke-linecap="round" stroke-linejoin="round"/>
<path d="M516.119 624.037V260.509" stroke="#C9DEF2" stroke-linecap="round" stroke-linejoin="round" stroke-dasharray="2.52 3.36"/>
<path d="M516.119 248.588V239.649M601.274 206.392L607.388 212.874" stroke="#C9DEF2" stroke-linecap="round" stroke-linejoin="round"/>
<path d="M623.627 230.083L1013.36 643.124" stroke="#C9DEF2" stroke-linecap="round" stroke-linejoin="round" stroke-dasharray="2.51 3.34"/>
<path d="M516.119 656.811V647.875M1021.48 651.731L1027.61 658.22" stroke="#C9DEF2" stroke-linecap="round" stroke-linejoin="round"/>
<path fill-rule="evenodd" clip-rule="evenodd" d="M280.436 151.436L277.231 141.012C277.076 140.512 277.076 139.977 277.231 139.477L280.436 129.045C280.575 128.592 280.588 128.109 280.474 127.648C280.36 127.187 280.122 126.767 279.786 126.431C279.451 126.095 279.03 125.856 278.569 125.741C278.109 125.626 277.625 125.638 277.171 125.776L266.762 128.989C266.262 129.145 265.726 129.145 265.226 128.989L254.824 125.776C254.369 125.636 253.885 125.624 253.423 125.739C252.961 125.854 252.539 126.092 252.203 126.429C251.867 126.766 251.629 127.187 251.515 127.649C251.401 128.111 251.415 128.595 251.555 129.049L254.756 139.477C254.911 139.977 254.911 140.512 254.756 141.012L251.555 151.436C251.415 151.89 251.402 152.374 251.516 152.836C251.63 153.297 251.868 153.719 252.204 154.056C252.54 154.393 252.961 154.632 253.423 154.747C253.885 154.863 254.369 154.851 254.824 154.713L265.229 151.5C265.728 151.345 266.263 151.345 266.762 151.5L277.167 154.713C277.622 154.853 278.107 154.866 278.57 154.75C279.032 154.635 279.454 154.396 279.79 154.059C280.127 153.722 280.365 153.299 280.478 152.837C280.592 152.375 280.577 151.89 280.436 151.436Z" stroke="#C9DEF2" stroke-linecap="round" stroke-linejoin="round"/>
<path d="M742.029 62.4551L765.079 85.5489M742.029 85.5489L765.079 62.4551" stroke="#C9DEF2" stroke-linecap="round" stroke-linejoin="round"/>
<path d="M1205.36 583.629V616.285M1221.66 599.957H1189.06M1274.47 3.66628C1277.83 3.66628 1280.54 6.38763 1280.54 9.75153C1280.54 13.1041 1277.83 15.8292 1274.47 15.8292C1273.68 15.8282 1272.89 15.6702 1272.15 15.3643C1271.41 15.0583 1270.74 14.6103 1270.18 14.046C1269.62 13.4816 1269.17 12.8119 1268.86 12.075C1268.56 11.3382 1268.4 10.5487 1268.41 9.75153C1268.41 6.38763 1271.12 3.66628 1274.47 3.66628ZM1047.72 390.137L1042.62 380.498C1042.38 380.033 1042 379.652 1041.54 379.406L1031.92 374.307C1031.5 374.084 1031.14 373.751 1030.9 373.344C1030.65 372.936 1030.52 372.47 1030.52 371.994C1030.52 371.519 1030.65 371.052 1030.9 370.645C1031.14 370.237 1031.5 369.904 1031.92 369.681L1041.54 364.579C1042 364.334 1042.38 363.954 1042.62 363.49L1047.72 353.852C1047.94 353.432 1048.27 353.08 1048.68 352.834C1049.09 352.589 1049.55 352.459 1050.03 352.459C1050.51 352.459 1050.97 352.589 1051.38 352.834C1051.79 353.08 1052.12 353.432 1052.34 353.852L1057.43 363.49C1057.68 363.953 1058.05 364.332 1058.52 364.579L1068.14 369.681C1069.99 370.664 1069.99 373.321 1068.14 374.307L1058.52 379.41C1058.05 379.657 1057.68 380.036 1057.43 380.498L1052.34 390.137C1052.12 390.557 1051.79 390.909 1051.38 391.154C1050.97 391.4 1050.51 391.529 1050.03 391.529C1049.55 391.529 1049.09 391.4 1048.68 391.154C1048.27 390.909 1047.94 390.557 1047.72 390.137Z" stroke="#C9DEF2" stroke-linecap="round" stroke-linejoin="round"/>
<path d="M332.26 254.813L323.418 263.673M332.26 254.813C333.294 255.849 334.522 256.67 335.873 257.231C337.225 257.791 338.674 258.08 340.138 258.08C341.602 258.08 343.051 257.791 344.403 257.231C345.754 256.67 346.982 255.849 348.016 254.813C350.105 252.717 351.278 249.88 351.278 246.921C351.278 243.963 350.105 241.126 348.016 239.03C346.983 237.993 345.755 237.171 344.403 236.61C343.051 236.049 341.602 235.76 340.138 235.76C338.674 235.76 337.225 236.049 335.873 236.61C334.521 237.171 333.293 237.993 332.26 239.03C330.171 241.126 328.998 243.963 328.998 246.921C328.998 249.88 330.171 252.717 332.26 254.813ZM356.858 230.17L348.019 239.026" stroke="#C9DEF2" stroke-linecap="round" stroke-linejoin="round"/>
<path d="M317.168 364.083V379.905M325.06 371.994H309.275M1195.07 130.41C1197.53 123.409 1199.35 116.203 1200.52 108.877M135.882 72.1537C135.882 76.0506 132.73 79.2179 128.829 79.2179C127.902 79.2164 126.984 79.0324 126.127 78.6764C125.271 78.3203 124.493 77.7992 123.839 77.1428C123.184 76.4865 122.665 75.7077 122.312 74.851C121.959 73.9943 121.778 73.0765 121.78 72.15C121.78 68.2569 124.936 65.0896 128.829 65.0896C132.726 65.0896 135.882 68.2607 135.882 72.1537ZM999.018 9.75153C999.018 13.6446 995.866 16.8119 991.965 16.8119C990.094 16.8069 988.301 16.0607 986.981 14.7371C985.66 13.4134 984.919 11.6204 984.92 9.75153C984.92 5.84714 988.079 2.68356 991.965 2.68356C995.862 2.68356 999.018 5.84714 999.018 9.75153ZM1310.3 408.132L1306.53 400.999L1299.41 397.227L1306.53 393.455L1310.3 386.319L1314.07 393.455L1321.18 397.227L1314.07 400.999L1310.3 408.132ZM917.628 227.392C914.272 227.392 911.559 230.113 911.559 233.473C911.559 236.83 914.275 239.555 917.628 239.555C920.98 239.555 923.697 236.83 923.697 233.473C923.697 230.11 920.98 227.392 917.628 227.392ZM19.5539 455.978C19.5559 457.081 19.3404 458.172 18.9199 459.191C18.4994 460.21 17.882 461.137 17.103 461.917C16.324 462.698 15.3987 463.318 14.38 463.741C13.3612 464.164 12.2689 464.383 11.1655 464.384C10.0625 464.383 8.9705 464.164 7.95197 463.741C6.93345 463.318 6.00831 462.699 5.22938 461.919C4.45045 461.138 3.83299 460.213 3.41224 459.194C2.99149 458.175 2.77571 457.084 2.7772 455.982C2.7772 451.344 6.53814 447.576 11.1655 447.576C12.2689 447.578 13.3612 447.796 14.38 448.22C15.3987 448.643 16.324 449.262 17.103 450.043C17.882 450.824 18.4994 451.75 18.9199 452.769C19.3404 453.788 19.5559 454.876 19.5539 455.978ZM139.719 583.75L135.95 576.618L128.833 572.845L135.95 569.066L139.719 561.937L143.483 569.066L150.604 572.845L143.483 576.618L139.719 583.75ZM173.525 318.459L178.652 316.875L183.787 318.463L182.205 313.315L183.787 308.175L178.652 309.755L173.525 308.178L175.103 313.319L173.525 318.459ZM39.7282 231.123L53.3645 238.595L39.7282 246.067L32.2669 259.731L24.8093 246.067L11.1693 238.595L24.8093 231.123L32.2669 217.455L39.7282 231.123ZM1426.67 233.47L1431.03 248.418L1416.12 244.038L1401.2 248.422L1405.57 233.473L1401.2 218.521L1416.12 222.906L1431.03 218.521L1426.67 233.47ZM1150.22 89.2945C1191.36 89.2945 1224.73 122.714 1224.73 163.95C1224.73 205.171 1191.36 238.595 1150.22 238.595C1109.06 238.595 1075.71 205.171 1075.71 163.947C1075.71 122.714 1109.06 89.2945 1150.22 89.2945Z" stroke="#C9DEF2" stroke-linecap="round" stroke-linejoin="round"/>
<path d="M1148.42 192.521C1161.21 183.559 1172.19 172.077 1180.82 159.059C1183.29 155.335 1185.56 151.487 1187.64 147.532M1121.21 207.227C1124.09 206.131 1126.92 204.911 1129.7 203.591M1095.25 214.345C1099.17 213.707 1103.06 212.888 1106.9 211.888M1101.31 200.258C1128.74 191.931 1152.95 173.384 1169.63 149.746M1081.41 138.128C1088.53 133.806 1095.21 128.793 1101.35 123.164M1108.31 137.183C1120.9 126.686 1131.33 113.842 1139 99.3673M1162.3 237.125C1178.5 229.611 1192.84 218.302 1204.45 204.744M1208.59 158.13C1209.05 157.098 1209.51 156.074 1209.95 155.038M1140.12 224.633C1161.5 215.977 1180.05 200.912 1193.94 182.554C1197.87 177.356 1201.43 171.887 1204.59 166.188M1117.57 231.066C1122.19 230.279 1126.76 229.19 1131.23 227.808M1205.18 185.476C1213.16 173.774 1219.02 160.828 1222.83 147.188M1133.49 236.694C1146.73 233.08 1159.29 227.34 1170.68 219.697M1157.26 133.838C1165.34 121.456 1171.19 107.766 1174.57 93.3803M1137.87 157.083C1140.44 154.652 1142.9 152.112 1145.24 149.47M1079.78 188.344C1084.98 187.118 1090.1 185.564 1095.11 183.692M1157.64 99.6583C1158.88 96.5137 1160 93.3161 1161 90.0769M1128.4 143.741C1137.45 135.198 1145.58 125.443 1150.87 114.085M1114.86 155.352C1116.9 153.728 1118.92 152.074 1120.91 150.389M1076.49 174.745C1086.79 171.587 1096.64 167.131 1105.8 161.486M1090.52 150.336C1085.85 153.116 1080.99 155.561 1075.98 157.653" stroke="#C9DEF2" stroke-linecap="round" stroke-linejoin="round"/>
<rect x="110" y="264" width="818" height="807" fill="white"/>
</g>
<defs>
<clipPath id="clip0_2_298">
<rect width="1434" height="669" fill="white"/>
</clipPath>
</defs>
</svg>
