<svg width="12" height="12" viewBox="0 0 12 12" fill="none" xmlns="http://www.w3.org/2000/svg">
<g clip-path="url(#clip0_80_27)">
<path fill-rule="evenodd" clip-rule="evenodd" d="M5.53527 3.46205H4.95536C4.87232 3.46205 4.80536 3.52902 4.80536 3.61205V6.93348C4.80536 6.98169 4.82813 7.02589 4.86697 7.05402L6.86116 8.50848C6.92813 8.55669 7.02188 8.5433 7.07009 8.47634L7.41429 8.00625V8.00491C7.4625 7.93794 7.44777 7.84419 7.38081 7.79598L5.68393 6.56919V3.61205C5.68527 3.52902 5.61697 3.46205 5.53527 3.46205Z" fill="#24292E"/>
<path d="M9.92143 8.16831H9.14732C9.07232 8.16831 9.00134 8.20715 8.96116 8.27143C8.79081 8.54145 8.59092 8.79165 8.36518 9.01741C7.9765 9.40737 7.51572 9.71804 7.00848 9.93215C6.48214 10.1545 5.92366 10.267 5.34777 10.267C4.77053 10.267 4.21205 10.1545 3.68705 9.93215C3.17946 9.71786 2.72277 9.40983 2.33036 9.01741C1.93794 8.625 1.62991 8.16831 1.41562 7.66072C1.1933 7.13572 1.0808 6.57724 1.0808 6C1.0808 5.42277 1.1933 4.86563 1.41562 4.33929C1.62991 3.8317 1.93794 3.375 2.33036 2.98259C2.72277 2.59018 3.17946 2.28215 3.68705 2.06786C4.21205 1.84554 4.77187 1.73304 5.34777 1.73304C5.925 1.73304 6.48348 1.84554 7.00848 2.06786C7.51607 2.28215 7.97277 2.59018 8.36518 2.98259C8.59092 3.20835 8.79081 3.45856 8.96116 3.72858C9.00134 3.79286 9.07232 3.8317 9.14732 3.8317H9.92143C10.0138 3.8317 10.0728 3.73527 10.0312 3.65358C9.15803 1.91652 7.3875 0.787504 5.41071 0.764737C2.51652 0.728576 0.112498 3.09777 0.107141 5.98929C0.101784 8.88617 2.44955 11.2366 5.34643 11.2366C7.34866 11.2366 9.14866 10.1036 10.0312 8.34643C10.0407 8.32769 10.0451 8.30686 10.0442 8.2859C10.0433 8.26495 10.037 8.24458 10.026 8.22673C10.015 8.20888 9.99964 8.19414 9.98133 8.18391C9.96302 8.17369 9.9424 8.16832 9.92143 8.16831Z" fill="#24292E"/>
</g>
<defs>
<clipPath id="clip0_80_27">
<rect width="12" height="12" fill="white"/>
</clipPath>
</defs>
</svg>
