<svg width="16" height="16" viewBox="0 0 16 16" fill="none" xmlns="http://www.w3.org/2000/svg">
<rect width="16" height="16" rx="8" fill="white"/>
<g clip-path="url(#clip0_36_34)">
<path d="M6.14287 4.92857H6.64287C6.68216 4.92857 6.7143 4.89643 6.7143 4.85714C6.7143 4.60446 6.76698 4.38214 6.86698 4.20089C6.96162 4.02768 7.09912 3.89018 7.27233 3.79554C7.45448 3.69643 7.67591 3.64286 7.92858 3.64286H8.07144C8.32412 3.64286 8.54644 3.69554 8.72769 3.79554C8.90091 3.89018 9.03841 4.02768 9.13305 4.20089C9.23216 4.38304 9.28573 4.60446 9.28573 4.85714C9.28573 4.89643 9.31787 4.92857 9.35716 4.92857H9.85716C9.89644 4.92857 9.92858 4.89643 9.92858 4.85714C9.92858 4.5 9.85001 4.17232 9.69733 3.89196C9.54556 3.61251 9.31607 3.38302 9.03662 3.23125C8.75626 3.07857 8.42858 3 8.07144 3H7.92858C7.57144 3 7.24376 3.07857 6.96341 3.23125C6.68395 3.38302 6.45446 3.61251 6.30269 3.89196C6.15001 4.17232 6.07144 4.5 6.07144 4.85714C6.07144 4.89643 6.10358 4.92857 6.14287 4.92857Z" fill="#0366D6"/>
<path d="M11.8214 6.99997H10.5V6.10712C11.1857 6.10712 11.7411 5.55176 11.7411 4.86605C11.7411 4.82676 11.7089 4.79462 11.6696 4.79462H11.1339C11.0946 4.79462 11.0625 4.82676 11.0625 4.86605C11.0625 5.01523 11.0032 5.1583 10.8978 5.26379C10.7923 5.36928 10.6492 5.42855 10.5 5.42855H5.5C5.35082 5.42855 5.20775 5.36928 5.10226 5.26379C4.99677 5.1583 4.9375 5.01523 4.9375 4.86605C4.9375 4.82676 4.90536 4.79462 4.86608 4.79462H4.33036C4.29108 4.79462 4.25893 4.82676 4.25893 4.86605C4.25893 5.55176 4.81429 6.10712 5.5 6.10712V6.99997H4.17858C4.13929 6.99997 4.10715 7.03212 4.10715 7.0714V7.5714C4.10715 7.61069 4.13929 7.64283 4.17858 7.64283H5.5V8.49997C5.5 8.55801 5.50179 8.61604 5.50625 8.67229C4.89375 8.9339 4.46429 9.54194 4.46429 10.25C4.46429 10.2893 4.49643 10.3214 4.53572 10.3214H5.03572C5.075 10.3214 5.10715 10.2893 5.10715 10.25C5.10715 9.85533 5.32054 9.50979 5.63929 9.32408C5.69222 9.47625 5.76012 9.6228 5.84197 9.76158C6.05893 10.1321 6.36875 10.4419 6.73929 10.6589C7.10983 10.8759 7.54018 11 8 11C8.45983 11 8.89108 10.8759 9.26161 10.6589C9.77471 10.3582 10.1645 9.88519 10.3616 9.32408C10.5234 9.41851 10.6575 9.5537 10.7508 9.71616C10.844 9.87862 10.893 10.0627 10.8929 10.25C10.8929 10.2893 10.925 10.3214 10.9643 10.3214H11.4643C11.5036 10.3214 11.5357 10.2893 11.5357 10.25C11.5357 9.54194 11.1063 8.9339 10.4938 8.67229C10.4973 8.61515 10.5 8.55801 10.5 8.49997V7.64283H11.8214C11.8607 7.64283 11.8929 7.61069 11.8929 7.5714V7.0714C11.8929 7.03212 11.8607 6.99997 11.8214 6.99997ZM9.82143 8.49997C9.82143 8.82855 9.73483 9.14283 9.57322 9.41872C9.41518 9.68926 9.18929 9.91515 8.91875 10.0732C8.64286 10.2348 8.32858 10.3214 8 10.3214C7.67143 10.3214 7.35715 10.2348 7.08125 10.0732C6.81072 9.91515 6.58483 9.68926 6.42679 9.41872C6.26359 9.14009 6.17789 8.82288 6.17858 8.49997V6.10712H9.82143V8.49997Z" fill="#0366D6"/>
</g>
<defs>
<clipPath id="clip0_36_34">
<rect width="8" height="8" fill="white" transform="translate(4 3)"/>
</clipPath>
</defs>
</svg>
