<svg width="59" height="59" viewBox="0 0 59 59" fill="none" xmlns="http://www.w3.org/2000/svg">
<path d="M21.3148 21H23.5185C23.6917 21 23.8333 20.8 23.8333 20.5556C23.8333 18.9833 24.0655 17.6 24.5063 16.4722C24.9234 15.3944 25.5294 14.5389 26.2928 13.95C27.0956 13.3333 28.0715 13 29.1852 13H29.8148C30.9285 13 31.9083 13.3278 32.7072 13.95C33.4706 14.5389 34.0766 15.3944 34.4938 16.4722C34.9306 17.6056 35.1667 18.9833 35.1667 20.5556C35.1667 20.8 35.3083 21 35.4815 21H37.6852C37.8583 21 38 20.8 38 20.5556C38 18.3333 37.6537 16.2944 36.9808 14.55C36.3119 12.8112 35.3004 11.3833 34.0687 10.4389C32.8331 9.48889 31.3889 9 29.8148 9H29.1852C27.6111 9 26.1669 9.48889 24.9312 10.4389C23.6996 11.3833 22.6881 12.8112 22.0192 14.55C21.3463 16.2944 21 18.3333 21 20.5556C21 20.8 21.1417 21 21.3148 21Z" fill="#0366D6"/>
<path d="M49.6239 31.3065H42.6651V27.1338C46.2761 27.1338 49.2007 24.5384 49.2007 21.3338C49.2007 21.1502 49.0314 21 48.8245 21H46.0034C45.7966 21 45.6273 21.1502 45.6273 21.3338C45.6273 22.031 45.3152 22.6996 44.7597 23.1926C44.2042 23.6856 43.4508 23.9626 42.6651 23.9626H16.3349C15.5492 23.9626 14.7958 23.6856 14.2403 23.1926C13.6848 22.6996 13.3727 22.031 13.3727 21.3338C13.3727 21.1502 13.2034 21 12.9966 21H10.1755C9.96858 21 9.79931 21.1502 9.79931 21.3338C9.79931 24.5384 12.7239 27.1338 16.3349 27.1338V31.3065H9.37615C9.16927 31.3065 9 31.4567 9 31.6403V33.977C9 34.1606 9.16927 34.3108 9.37615 34.3108H16.3349V38.3165C16.3349 38.5878 16.3443 38.859 16.3678 39.1219C13.1423 40.3445 10.8807 43.186 10.8807 46.495C10.8807 46.6786 11.05 46.8288 11.2569 46.8288H13.8899C14.0968 46.8288 14.2661 46.6786 14.2661 46.495C14.2661 44.6506 15.3898 43.0358 17.0683 42.1679C17.3471 42.8791 17.7046 43.564 18.1357 44.2125C19.2782 45.9442 20.9097 47.3921 22.861 48.406C24.8123 49.42 27.0786 50 29.5 50C31.9214 50 34.1924 49.42 36.1437 48.406C38.8457 47.0007 40.8983 44.7902 41.9364 42.1679C42.7882 42.6092 43.4947 43.241 43.9856 44.0002C44.4765 44.7595 44.7345 45.6196 44.7339 46.495C44.7339 46.6786 44.9032 46.8288 45.1101 46.8288H47.7431C47.95 46.8288 48.1193 46.6786 48.1193 46.495C48.1193 43.186 45.8577 40.3445 42.6322 39.1219C42.651 38.8548 42.6651 38.5878 42.6651 38.3165V34.3108H49.6239C49.8307 34.3108 50 34.1606 50 33.977V31.6403C50 31.4567 49.8307 31.3065 49.6239 31.3065ZM39.0917 38.3165C39.0917 39.8521 38.6357 41.3209 37.7846 42.6102C36.9524 43.8745 35.7628 44.9302 34.3382 45.6688C32.8853 46.424 31.2303 46.8288 29.5 46.8288C27.7697 46.8288 26.1147 46.424 24.6618 45.6688C23.2372 44.9302 22.0476 43.8745 21.2154 42.6102C20.356 41.3081 19.9047 39.8256 19.9083 38.3165V27.1338H39.0917V38.3165Z" fill="#0366D6"/>
</svg>
