<svg width="10" height="10" viewBox="0 0 10 10" fill="none" xmlns="http://www.w3.org/2000/svg">
<path d="M7.54461 1.08254C6.85488 1.08254 6.29461 1.6428 6.29461 2.33254C6.29461 2.89169 6.66403 3.36602 7.17072 3.52562V4.59593L2.85711 6.00888V2.83589C3.35041 2.66847 3.70532 2.20084 3.70532 1.65173C3.70532 0.962001 3.14505 0.401733 2.45532 0.401733C1.76559 0.401733 1.20532 0.962001 1.20532 1.65173C1.20532 2.20084 1.56023 2.66736 2.05354 2.83589V7.16513C1.56023 7.33254 1.20532 7.80017 1.20532 8.34928C1.20532 9.03901 1.76559 9.59928 2.45532 9.59928C3.14505 9.59928 3.70532 9.03901 3.70532 8.34928C3.70532 7.80017 3.35041 7.33365 2.85711 7.16513V6.85486L7.58367 5.30687C7.69717 5.26997 7.79604 5.198 7.86604 5.10133C7.93603 5.00466 7.97355 4.88827 7.97318 4.76892V3.50664C8.45198 3.3303 8.79461 2.87048 8.79461 2.33254C8.79461 1.6428 8.23434 1.08254 7.54461 1.08254ZM1.91961 1.65173C1.92247 1.51155 1.98017 1.37807 2.08032 1.27994C2.18048 1.18181 2.31511 1.12684 2.45532 1.12684C2.59554 1.12684 2.73017 1.18181 2.83032 1.27994C2.93048 1.37807 2.98818 1.51155 2.99104 1.65173C2.98818 1.79192 2.93048 1.9254 2.83032 2.02353C2.73017 2.12166 2.59554 2.17662 2.45532 2.17662C2.31511 2.17662 2.18048 2.12166 2.08032 2.02353C1.98017 1.9254 1.92247 1.79192 1.91961 1.65173ZM2.99104 8.34816C2.98818 8.48835 2.93048 8.62183 2.83032 8.71996C2.73017 8.81809 2.59554 8.87305 2.45532 8.87305C2.31511 8.87305 2.18048 8.81809 2.08032 8.71996C1.98017 8.62183 1.92247 8.48835 1.91961 8.34816C1.92247 8.20797 1.98017 8.07449 2.08032 7.97636C2.18048 7.87823 2.31511 7.82327 2.45532 7.82327C2.59554 7.82327 2.73017 7.87823 2.83032 7.97636C2.93048 8.07449 2.98818 8.20797 2.99104 8.34816ZM7.54461 2.86825C7.40442 2.86539 7.27094 2.80769 7.17281 2.70754C7.07468 2.60738 7.01972 2.47275 7.01972 2.33254C7.01972 2.19232 7.07468 2.05769 7.17281 1.95754C7.27094 1.85738 7.40442 1.79968 7.54461 1.79682C7.6848 1.79968 7.81828 1.85738 7.91641 1.95754C8.01454 2.05769 8.0695 2.19232 8.0695 2.33254C8.0695 2.47275 8.01454 2.60738 7.91641 2.70754C7.81828 2.80769 7.6848 2.86539 7.54461 2.86825Z" fill="#24292E"/>
</svg>
