<svg width="31" height="31" viewBox="0 0 31 31" fill="none" xmlns="http://www.w3.org/2000/svg">
<path fill-rule="evenodd" clip-rule="evenodd" d="M16.375 3.875C16.7894 3.875 17.1868 4.03962 17.4799 4.33265C17.7729 4.62567 17.9375 5.0231 17.9375 5.4375V14.8125H27.3125C27.7269 14.8125 28.1243 14.9771 28.4174 15.2701C28.7104 15.5632 28.875 15.9606 28.875 16.375C28.875 16.7894 28.7104 17.1868 28.4174 17.4799C28.1243 17.7729 27.7269 17.9375 27.3125 17.9375H17.9375V27.3125C17.9375 27.7269 17.7729 28.1243 17.4799 28.4174C17.1868 28.7104 16.7894 28.875 16.375 28.875C15.9606 28.875 15.5632 28.7104 15.2701 28.4174C14.9771 28.1243 14.8125 27.7269 14.8125 27.3125V17.9375H5.4375C5.0231 17.9375 4.62567 17.7729 4.33265 17.4799C4.03962 17.1868 3.875 16.7894 3.875 16.375C3.875 15.9606 4.03962 15.5632 4.33265 15.2701C4.62567 14.9771 5.0231 14.8125 5.4375 14.8125H14.8125V5.4375C14.8125 5.0231 14.9771 4.62567 15.2701 4.33265C15.5632 4.03962 15.9606 3.875 16.375 3.875Z" fill="#24292E"/>
</svg>
