<svg width="10" height="10" viewBox="0 0 10 10" fill="none" xmlns="http://www.w3.org/2000/svg">
<g clip-path="url(#clip0_85_307)">
<path d="M9.42076 3.22655L6.58706 2.81472L5.32032 0.246638C5.28572 0.176326 5.2288 0.119406 5.15849 0.0848081C4.98215 -0.00224545 4.76786 0.0702992 4.67969 0.246638L3.41295 2.81472L0.579245 3.22655C0.50112 3.23771 0.429691 3.27454 0.375003 3.33034C0.308889 3.3983 0.272457 3.48972 0.273713 3.58452C0.274969 3.67932 0.313809 3.76975 0.3817 3.83592L2.43192 5.83481L1.94755 8.65735C1.93619 8.72301 1.94346 8.79054 1.96852 8.85228C1.99359 8.91402 2.03545 8.9675 2.08937 9.00666C2.14328 9.04581 2.20709 9.06908 2.27355 9.07382C2.34002 9.07856 2.40648 9.06458 2.46541 9.03347L5 7.70088L7.5346 9.03347C7.6038 9.0703 7.68416 9.08257 7.76116 9.06918C7.95536 9.0357 8.08594 8.85155 8.05246 8.65735L7.56808 5.83481L9.61831 3.83592C9.67411 3.78124 9.71094 3.70981 9.7221 3.63168C9.75224 3.43637 9.61608 3.25557 9.42076 3.22655ZM6.70536 5.55356L7.10826 7.90066L5 6.79351L2.89174 7.90177L3.29465 5.55467L1.58929 3.89173L3.94643 3.54909L5 1.41405L6.05358 3.54909L8.41072 3.89173L6.70536 5.55356Z" fill="#24292E"/>
</g>
<defs>
<clipPath id="clip0_85_307">
<rect width="10" height="10" fill="white"/>
</clipPath>
</defs>
</svg>
