<svg width="25" height="25" viewBox="0 0 25 25" fill="none" xmlns="http://www.w3.org/2000/svg">
<g clip-path="url(#clip0_2_70)">
<path d="M17.7176 8.06363H16.409C16.1244 8.06363 15.8538 8.20035 15.6864 8.43472L11.3002 14.5173L9.31361 11.7606C9.1462 11.529 8.87834 11.3895 8.59095 11.3895H7.28236C7.101 11.3895 6.99497 11.596 7.101 11.7439L10.5776 16.5653C10.6597 16.6799 10.768 16.7733 10.8934 16.8378C11.0188 16.9022 11.1578 16.9358 11.2988 16.9358C11.4398 16.9358 11.5788 16.9022 11.7043 16.8378C11.8297 16.7733 11.938 16.6799 12.0201 16.5653L17.8962 8.41798C18.005 8.2701 17.899 8.06363 17.7176 8.06363Z" fill="#28A745"/>
<path d="M12.5 0C5.5971 0 0 5.5971 0 12.5C0 19.4029 5.5971 25 12.5 25C19.4029 25 25 19.4029 25 12.5C25 5.5971 19.4029 0 12.5 0ZM12.5 22.8795C6.76897 22.8795 2.12054 18.231 2.12054 12.5C2.12054 6.76897 6.76897 2.12054 12.5 2.12054C18.231 2.12054 22.8795 6.76897 22.8795 12.5C22.8795 18.231 18.231 22.8795 12.5 22.8795Z" fill="#28A745"/>
</g>
<defs>
<clipPath id="clip0_2_70">
<rect width="25" height="25" fill="white"/>
</clipPath>
</defs>
</svg>
