<svg width="1430" height="642" viewBox="0 0 1430 642" fill="none" xmlns="http://www.w3.org/2000/svg">
<path fill-rule="evenodd" clip-rule="evenodd" d="M744.588 387.078C725.889 375.531 721.046 351.319 721.046 351.319C721.046 351.319 715.341 368.819 697.44 373.827L700.543 383.563L723.139 389.346L744.588 387.078Z" stroke="#C9DEF2" stroke-linecap="round" stroke-linejoin="round"/>
<path fill-rule="evenodd" clip-rule="evenodd" d="M679.54 378.831C679.54 378.831 669.873 370.391 674.379 351.954C674.379 351.954 702.802 391.61 744.588 387.082C744.588 387.082 719.018 401.539 679.54 378.831Z" stroke="#C9DEF2" stroke-linecap="round" stroke-linejoin="round"/>
<path fill-rule="evenodd" clip-rule="evenodd" d="M571.956 471.58C588.225 470.28 601.366 484.28 601.366 484.28C601.366 484.28 604.544 467.215 591.529 462.611L567.177 459.595L571.956 471.58Z" stroke="#C9DEF2" stroke-linecap="round" stroke-linejoin="round"/>
<path fill-rule="evenodd" clip-rule="evenodd" d="M528.308 468.851C528.308 468.851 549.322 468.897 564.264 483.528C564.264 483.528 575.107 459.3 591.528 462.611C591.528 462.611 538.86 439.483 528.308 468.851Z" stroke="#C9DEF2" stroke-linecap="round" stroke-linejoin="round"/>
<path d="M514.119 622.037V258.509" stroke="#C9DEF2" stroke-linecap="round" stroke-linejoin="round" stroke-dasharray="2.52 3.36"/>
<path d="M621.627 228.083L1011.36 641.125" stroke="#C9DEF2" stroke-linecap="round" stroke-linejoin="round" stroke-dasharray="2.51 3.34"/>
<path fill-rule="evenodd" clip-rule="evenodd" d="M278.436 149.436L275.231 139.012C275.076 138.512 275.076 137.977 275.231 137.477L278.436 127.045C278.575 126.592 278.588 126.109 278.474 125.648C278.36 125.187 278.122 124.767 277.786 124.431C277.451 124.095 277.03 123.856 276.569 123.741C276.109 123.626 275.625 123.638 275.171 123.776L264.762 126.989C264.262 127.145 263.726 127.145 263.226 126.989L252.824 123.776C252.369 123.636 251.885 123.624 251.423 123.739C250.961 123.854 250.54 124.092 250.203 124.429C249.867 124.766 249.629 125.188 249.515 125.649C249.401 126.111 249.415 126.595 249.555 127.049L252.756 137.477C252.911 137.977 252.911 138.512 252.756 139.012L249.555 149.436C249.415 149.89 249.402 150.374 249.516 150.836C249.63 151.297 249.868 151.719 250.204 152.056C250.54 152.393 250.961 152.632 251.423 152.748C251.885 152.863 252.369 152.851 252.824 152.713L263.23 149.5C263.728 149.345 264.263 149.345 264.762 149.5L275.167 152.713C275.622 152.853 276.107 152.866 276.57 152.75C277.032 152.635 277.454 152.396 277.79 152.059C278.127 151.722 278.365 151.299 278.478 150.837C278.592 150.375 278.577 149.89 278.436 149.436Z" stroke="#C9DEF2" stroke-linecap="round" stroke-linejoin="round"/>
<path d="M740.029 60.4552L763.079 83.5489M740.029 83.5489L763.079 60.4552" stroke="#C9DEF2" stroke-linecap="round" stroke-linejoin="round"/>
<path d="M1203.36 581.629V614.285M1219.66 597.957H1187.06M1272.47 1.66626C1275.83 1.66626 1278.54 4.38762 1278.54 7.75151C1278.54 11.1041 1275.83 13.8292 1272.47 13.8292C1271.68 13.8282 1270.89 13.6702 1270.15 13.3643C1269.41 13.0583 1268.74 12.6103 1268.18 12.046C1267.62 11.4816 1267.17 10.8119 1266.86 10.075C1266.56 9.33819 1266.4 8.54866 1266.41 7.75151C1266.41 4.38762 1269.12 1.66626 1272.47 1.66626ZM1045.72 388.137L1040.62 378.498C1040.38 378.033 1040 377.652 1039.54 377.406L1029.92 372.307C1029.5 372.084 1029.14 371.751 1028.9 371.344C1028.65 370.936 1028.52 370.47 1028.52 369.994C1028.52 369.519 1028.65 369.052 1028.9 368.645C1029.14 368.237 1029.5 367.904 1029.92 367.681L1039.54 362.579C1040 362.334 1040.38 361.954 1040.62 361.49L1045.72 351.852C1045.94 351.432 1046.27 351.08 1046.68 350.834C1047.09 350.589 1047.55 350.459 1048.03 350.459C1048.51 350.459 1048.97 350.589 1049.38 350.834C1049.79 351.08 1050.12 351.432 1050.34 351.852L1055.43 361.49C1055.68 361.953 1056.05 362.332 1056.52 362.579L1066.14 367.681C1067.99 368.664 1067.99 371.321 1066.14 372.307L1056.52 377.41C1056.05 377.657 1055.68 378.036 1055.43 378.498L1050.34 388.137C1050.12 388.557 1049.79 388.909 1049.38 389.154C1048.97 389.4 1048.51 389.529 1048.03 389.529C1047.55 389.529 1047.09 389.4 1046.68 389.154C1046.27 388.909 1045.94 388.557 1045.72 388.137Z" stroke="#C9DEF2" stroke-linecap="round" stroke-linejoin="round"/>
<path d="M330.26 252.813L321.418 261.673M330.26 252.813C331.294 253.849 332.522 254.67 333.873 255.231C335.225 255.791 336.674 256.08 338.138 256.08C339.602 256.08 341.051 255.791 342.403 255.231C343.754 254.67 344.982 253.849 346.016 252.813C348.105 250.717 349.278 247.88 349.278 244.922C349.278 241.963 348.105 239.126 346.016 237.03C344.983 235.993 343.755 235.171 342.403 234.61C341.051 234.049 339.602 233.76 338.138 233.76C336.674 233.76 335.225 234.049 333.873 234.61C332.521 235.171 331.293 235.993 330.26 237.03C328.171 239.126 326.998 241.963 326.998 244.922C326.998 247.88 328.171 250.717 330.26 252.813ZM354.858 228.17L346.019 237.026" stroke="#C9DEF2" stroke-linecap="round" stroke-linejoin="round"/>
<path d="M315.168 362.083V377.905M323.06 369.994H307.275M1193.07 128.41C1195.53 121.409 1197.35 114.203 1198.52 106.877M133.882 70.1538C133.882 74.0506 130.73 77.218 126.829 77.218C125.902 77.2165 124.984 77.0324 124.127 76.6764C123.271 76.3203 122.493 75.7992 121.839 75.1429C121.184 74.4865 120.666 73.7077 120.312 72.851C119.959 71.9943 119.778 71.0765 119.78 70.15C119.78 66.2569 122.936 63.0896 126.829 63.0896C130.726 63.0896 133.882 66.2607 133.882 70.1538ZM997.018 7.75156C997.018 11.6446 993.866 14.812 989.965 14.812C988.094 14.807 986.301 14.0608 984.981 12.7371C983.66 11.4135 982.919 9.62048 982.92 7.75156C982.92 3.84717 986.079 0.683594 989.965 0.683594C993.862 0.683594 997.018 3.84717 997.018 7.75156ZM1308.3 406.132L1304.53 398.999L1297.41 395.227L1304.53 391.455L1308.3 384.319L1312.07 391.455L1319.18 395.227L1312.07 398.999L1308.3 406.132ZM915.628 225.392C912.272 225.392 909.559 228.113 909.559 231.473C909.559 234.83 912.275 237.555 915.628 237.555C918.98 237.555 921.697 234.83 921.697 231.473C921.697 228.11 918.98 225.392 915.628 225.392ZM17.5539 453.978C17.5559 455.081 17.3405 456.172 16.9199 457.191C16.4994 458.21 15.882 459.137 15.1031 459.917C14.3241 460.698 13.3988 461.318 12.38 461.741C11.3612 462.164 10.2689 462.383 9.16556 462.384C8.0625 462.383 6.97053 462.164 5.95201 461.741C4.93348 461.318 4.00834 460.699 3.22941 459.919C2.45048 459.138 1.83302 458.213 1.41227 457.194C0.991525 456.175 0.775738 455.084 0.777229 453.982C0.777229 449.344 4.53817 445.576 9.16556 445.576C10.2689 445.578 11.3612 445.796 12.38 446.22C13.3988 446.643 14.3241 447.263 15.1031 448.043C15.882 448.824 16.4994 449.75 16.9199 450.769C17.3405 451.788 17.5559 452.876 17.5539 453.978ZM137.719 581.75L133.95 574.618L126.833 570.845L133.95 567.066L137.719 559.937L141.483 567.066L148.604 570.845L141.483 574.618L137.719 581.75ZM171.525 316.459L176.652 314.875L181.787 316.463L180.205 311.315L181.787 306.175L176.652 307.755L171.525 306.179L173.103 311.319L171.525 316.459ZM37.7283 229.123L51.3645 236.595L37.7283 244.067L30.2669 257.731L22.8094 244.067L9.16935 236.595L22.8094 229.123L30.2669 215.455L37.7283 229.123ZM1424.67 231.47L1429.03 246.418L1414.12 242.038L1399.2 246.422L1403.57 231.473L1399.2 216.521L1414.12 220.906L1429.03 216.521L1424.67 231.47ZM1148.22 87.2945C1189.36 87.2945 1222.73 120.714 1222.73 161.95C1222.73 203.171 1189.36 236.595 1148.22 236.595C1107.06 236.595 1073.71 203.171 1073.71 161.947C1073.71 120.714 1107.06 87.2945 1148.22 87.2945Z" stroke="#C9DEF2" stroke-linecap="round" stroke-linejoin="round"/>
<path d="M1146.42 190.521C1159.21 181.559 1170.19 170.077 1178.82 157.059C1181.29 153.335 1183.56 149.487 1185.64 145.532M1119.21 205.227C1122.09 204.131 1124.92 202.911 1127.7 201.591M1093.25 212.345C1097.17 211.707 1101.06 210.888 1104.9 209.888M1099.31 198.258C1126.74 189.931 1150.95 171.384 1167.63 147.746M1079.41 136.128C1086.53 131.806 1093.21 126.793 1099.35 121.164M1106.31 135.183C1118.9 124.686 1129.33 111.842 1137 97.3673M1160.3 235.125C1176.5 227.611 1190.84 216.302 1202.45 202.744M1206.59 156.13C1207.05 155.098 1207.51 154.074 1207.95 153.038M1138.12 222.633C1159.5 213.977 1178.05 198.912 1191.94 180.554C1195.87 175.356 1199.43 169.887 1202.59 164.188M1115.57 229.066C1120.19 228.279 1124.76 227.19 1129.23 225.808M1203.18 183.476C1211.16 171.774 1217.02 158.828 1220.83 145.188M1131.49 234.694C1144.73 231.08 1157.29 225.34 1168.68 217.697M1155.26 131.838C1163.34 119.456 1169.19 105.766 1172.57 91.3803M1135.87 155.083C1138.44 152.652 1140.9 150.112 1143.24 147.47M1077.78 186.344C1082.98 185.118 1088.1 183.564 1093.11 181.692M1155.64 97.6583C1156.88 94.5137 1158 91.3161 1159 88.0769M1126.4 141.741C1135.45 133.198 1143.58 123.443 1148.87 112.085M1112.86 153.352C1114.9 151.728 1116.92 150.074 1118.91 148.389M1074.49 172.745C1084.79 169.587 1094.64 165.131 1103.8 159.486M1088.52 148.336C1083.85 151.116 1078.99 153.561 1073.98 155.653" stroke="#C9DEF2" stroke-linecap="round" stroke-linejoin="round"/>
</svg>
