<svg width="32" height="32" viewBox="0 0 32 32" fill="none" xmlns="http://www.w3.org/2000/svg">
<circle cx="16" cy="16" r="16" fill="#D9D9D9"/>
<path d="M21.3008 19.712C20.985 18.964 20.5267 18.2845 19.9515 17.7115C19.378 17.1368 18.6986 16.6786 17.9509 16.3621C17.9442 16.3588 17.9375 16.3571 17.9308 16.3538C18.9738 15.6004 19.6518 14.3733 19.6518 12.9888C19.6518 10.6953 17.7935 8.83704 15.5 8.83704C13.2065 8.83704 11.3482 10.6953 11.3482 12.9888C11.3482 14.3733 12.0262 15.6004 13.0692 16.3555C13.0625 16.3588 13.0558 16.3605 13.0491 16.3638C12.2991 16.6802 11.6261 17.1339 11.0486 17.7132C10.4739 18.2866 10.0156 18.966 9.69923 19.7137C9.38838 20.4457 9.22074 21.2305 9.20536 22.0257C9.20492 22.0435 9.20805 22.0613 9.21458 22.0779C9.22111 22.0946 9.23091 22.1097 9.24339 22.1225C9.25587 22.1353 9.27078 22.1455 9.28726 22.1524C9.30373 22.1594 9.32142 22.1629 9.33929 22.1629H10.3438C10.4174 22.1629 10.476 22.1043 10.4777 22.0323C10.5112 20.7399 11.0301 19.5296 11.9476 18.6121C12.8968 17.6629 14.1574 17.1406 15.5 17.1406C16.8426 17.1406 18.1032 17.6629 19.0525 18.6121C19.9699 19.5296 20.4888 20.7399 20.5223 22.0323C20.524 22.106 20.5826 22.1629 20.6563 22.1629H21.6607C21.6786 22.1629 21.6963 22.1594 21.7128 22.1524C21.7292 22.1455 21.7441 22.1353 21.7566 22.1225C21.7691 22.1097 21.7789 22.0946 21.7854 22.0779C21.792 22.0613 21.7951 22.0435 21.7946 22.0257C21.7779 21.2254 21.6122 20.447 21.3008 19.712ZM15.5 15.8683C14.7316 15.8683 14.0084 15.5686 13.4643 15.0245C12.9202 14.4805 12.6205 13.7572 12.6205 12.9888C12.6205 12.2204 12.9202 11.4972 13.4643 10.9531C14.0084 10.409 14.7316 10.1094 15.5 10.1094C16.2684 10.1094 16.9916 10.409 17.5357 10.9531C18.0798 11.4972 18.3795 12.2204 18.3795 12.9888C18.3795 13.7572 18.0798 14.4805 17.5357 15.0245C16.9916 15.5686 16.2684 15.8683 15.5 15.8683Z" fill="white"/>
</svg>
